<mxfile host="65bd71144e">
    <diagram id="nLGgiKxhm_t_oG7jmk5N" name="Page-1">
        <mxGraphModel dx="1570" dy="1134" grid="1" gridSize="10" guides="1" tooltips="1" connect="1" arrows="1" fold="1" page="1" pageScale="1" pageWidth="850" pageHeight="1100" math="0" shadow="0">
            <root>
                <mxCell id="0"/>
                <mxCell id="1" parent="0"/>
                <mxCell id="fjQTsFiHower9CyK5K25-1" value="&lt;h1 style=&quot;text-align: center&quot;&gt;Algoritma Deskriptif&lt;/h1&gt;&lt;p style=&quot;font-size: medium ; margin: 0px&quot;&gt;1. Mulai&lt;/p&gt;&lt;p style=&quot;font-size: medium ; margin: 0px&quot;&gt;2. Membuat fungsi dengan nama divideandsort yang memiliki parameter number&lt;/p&gt;&lt;p style=&quot;font-size: medium ; margin: 0px&quot;&gt;3. melakukan return number dan mengubahnya ke string&lt;/p&gt;&lt;p style=&quot;font-size: medium ; margin: 0px&quot;&gt;4. kemudian membagi string ke array dengan fungsi split&lt;/p&gt;&lt;p style=&quot;font-size: medium ; margin: 0px&quot;&gt;5. membuat object map dengan membuat fungsi array sort untuk mengurutkan elemen array dan join untuk menggabungkan&lt;/p&gt;&lt;p style=&quot;font-size: medium ; margin: 0px&quot;&gt;6. Print Hasil dari divideandsort&lt;/p&gt;&lt;p style=&quot;font-size: medium ; margin: 0px&quot;&gt;7. Selesai&lt;/p&gt;" style="text;html=1;strokeColor=none;fillColor=none;spacing=5;spacingTop=-20;whiteSpace=wrap;overflow=hidden;rounded=0;" parent="1" vertex="1">
                    <mxGeometry x="30" y="40" width="450" height="260" as="geometry"/>
                </mxCell>
                <mxCell id="fjQTsFiHower9CyK5K25-2" value="&lt;h1 style=&quot;text-align: center&quot;&gt;Algoritma Pseudocode&lt;/h1&gt;&lt;div style=&quot;font-size: 16px&quot;&gt;&lt;p style=&quot;margin: 0px&quot;&gt;&lt;span style=&quot;font-family: &amp;#34;droid sans mono,monospace,monospace,droid sans fallback&amp;#34;&quot;&gt;function&lt;/span&gt;&lt;span style=&quot;font-family: &amp;#34;droid sans mono,monospace,monospace,droid sans fallback&amp;#34;&quot;&gt; &lt;/span&gt;&lt;span style=&quot;font-family: &amp;#34;droid sans mono,monospace,monospace,droid sans fallback&amp;#34;&quot;&gt;divideAndSort&lt;/span&gt;&lt;span style=&quot;font-family: &amp;#34;droid sans mono,monospace,monospace,droid sans fallback&amp;#34;&quot;&gt;(&lt;/span&gt;&lt;span style=&quot;font-family: &amp;#34;droid sans mono,monospace,monospace,droid sans fallback&amp;#34;&quot;&gt;number&lt;/span&gt;&lt;span style=&quot;font-family: &amp;#34;droid sans mono,monospace,monospace,droid sans fallback&amp;#34;&quot;&gt;) {&lt;/span&gt;&lt;/p&gt;&lt;pre style=&quot;margin-top: 0px ; margin-bottom: 0px&quot;&gt;&lt;span style=&quot;font-family: &amp;#34;droid sans mono,monospace,monospace,droid sans fallback&amp;#34;&quot;&gt;  &lt;/span&gt;&lt;span style=&quot;font-family: &amp;#34;droid sans mono,monospace,monospace,droid sans fallback&amp;#34;&quot;&gt;return&lt;/span&gt;&lt;span style=&quot;font-family: &amp;#34;droid sans mono,monospace,monospace,droid sans fallback&amp;#34;&quot;&gt; &lt;/span&gt;&lt;span style=&quot;font-family: &amp;#34;droid sans mono,monospace,monospace,droid sans fallback&amp;#34;&quot;&gt;+&lt;/span&gt;&lt;span style=&quot;font-family: &amp;#34;droid sans mono,monospace,monospace,droid sans fallback&amp;#34;&quot;&gt; &lt;/span&gt;&lt;span style=&quot;font-family: &amp;#34;droid sans mono,monospace,monospace,droid sans fallback&amp;#34;&quot;&gt;number&lt;/span&gt;&lt;/pre&gt;&lt;pre style=&quot;margin-top: 0px ; margin-bottom: 0px&quot;&gt;&lt;span style=&quot;font-family: &amp;#34;droid sans mono,monospace,monospace,droid sans fallback&amp;#34;&quot;&gt;      .&lt;/span&gt;&lt;span style=&quot;font-family: &amp;#34;droid sans mono,monospace,monospace,droid sans fallback&amp;#34;&quot;&gt;toString&lt;/span&gt;&lt;span style=&quot;font-family: &amp;#34;droid sans mono,monospace,monospace,droid sans fallback&amp;#34;&quot;&gt;()&lt;/span&gt;&lt;/pre&gt;&lt;pre style=&quot;margin-top: 0px ; margin-bottom: 0px&quot;&gt;&lt;span style=&quot;font-family: &amp;#34;droid sans mono,monospace,monospace,droid sans fallback&amp;#34;&quot;&gt;      .&lt;/span&gt;&lt;span style=&quot;font-family: &amp;#34;droid sans mono,monospace,monospace,droid sans fallback&amp;#34;&quot;&gt;split&lt;/span&gt;&lt;span style=&quot;font-family: &amp;#34;droid sans mono,monospace,monospace,droid sans fallback&amp;#34;&quot;&gt;(&lt;/span&gt;&lt;span style=&quot;font-family: &amp;#34;droid sans mono,monospace,monospace,droid sans fallback&amp;#34;&quot;&gt;'0'&lt;/span&gt;&lt;span style=&quot;font-family: &amp;#34;droid sans mono,monospace,monospace,droid sans fallback&amp;#34;&quot;&gt;)&lt;/span&gt;&lt;/pre&gt;&lt;pre style=&quot;margin-top: 0px ; margin-bottom: 0px&quot;&gt;&lt;span style=&quot;font-family: &amp;#34;droid sans mono,monospace,monospace,droid sans fallback&amp;#34;&quot;&gt;      .&lt;/span&gt;&lt;span style=&quot;font-family: &amp;#34;droid sans mono,monospace,monospace,droid sans fallback&amp;#34;&quot;&gt;map&lt;/span&gt;&lt;span style=&quot;font-family: &amp;#34;droid sans mono,monospace,monospace,droid sans fallback&amp;#34;&quot;&gt;(&lt;/span&gt;&lt;span style=&quot;font-family: &amp;#34;droid sans mono,monospace,monospace,droid sans fallback&amp;#34;&quot;&gt;s&lt;/span&gt;&lt;span style=&quot;font-family: &amp;#34;droid sans mono,monospace,monospace,droid sans fallback&amp;#34;&quot;&gt; &lt;/span&gt;&lt;span style=&quot;font-family: &amp;#34;droid sans mono,monospace,monospace,droid sans fallback&amp;#34;&quot;&gt;=&amp;gt;&lt;/span&gt;&lt;span style=&quot;font-family: &amp;#34;droid sans mono,monospace,monospace,droid sans fallback&amp;#34;&quot;&gt; &lt;/span&gt;&lt;span style=&quot;font-family: &amp;#34;droid sans mono,monospace,monospace,droid sans fallback&amp;#34;&quot;&gt;Array&lt;/span&gt;&lt;span style=&quot;font-family: &amp;#34;droid sans mono,monospace,monospace,droid sans fallback&amp;#34;&quot;&gt;.&lt;/span&gt;&lt;span style=&quot;font-family: &amp;#34;droid sans mono,monospace,monospace,droid sans fallback&amp;#34;&quot;&gt;from&lt;/span&gt;&lt;span style=&quot;font-family: &amp;#34;droid sans mono,monospace,monospace,droid sans fallback&amp;#34;&quot;&gt;(&lt;/span&gt;&lt;span style=&quot;font-family: &amp;#34;droid sans mono,monospace,monospace,droid sans fallback&amp;#34;&quot;&gt;s&lt;/span&gt;&lt;span style=&quot;font-family: &amp;#34;droid sans mono,monospace,monospace,droid sans fallback&amp;#34;&quot;&gt;).&lt;/span&gt;&lt;span style=&quot;font-family: &amp;#34;droid sans mono,monospace,monospace,droid sans fallback&amp;#34;&quot;&gt;sort&lt;/span&gt;&lt;span style=&quot;font-family: &amp;#34;droid sans mono,monospace,monospace,droid sans fallback&amp;#34;&quot;&gt;().&lt;/span&gt;&lt;span style=&quot;font-family: &amp;#34;droid sans mono,monospace,monospace,droid sans fallback&amp;#34;&quot;&gt;join&lt;/span&gt;&lt;span style=&quot;font-family: &amp;#34;droid sans mono,monospace,monospace,droid sans fallback&amp;#34;&quot;&gt;(&lt;/span&gt;&lt;span style=&quot;font-family: &amp;#34;droid sans mono,monospace,monospace,droid sans fallback&amp;#34;&quot;&gt;''&lt;/span&gt;&lt;span style=&quot;font-family: &amp;#34;droid sans mono,monospace,monospace,droid sans fallback&amp;#34;&quot;&gt;))&lt;/span&gt;&lt;/pre&gt;&lt;pre style=&quot;margin-top: 0px ; margin-bottom: 0px&quot;&gt;&lt;span style=&quot;font-family: &amp;#34;droid sans mono,monospace,monospace,droid sans fallback&amp;#34;&quot;&gt;      .&lt;/span&gt;&lt;span style=&quot;font-family: &amp;#34;droid sans mono,monospace,monospace,droid sans fallback&amp;#34;&quot;&gt;join&lt;/span&gt;&lt;span style=&quot;font-family: &amp;#34;droid sans mono,monospace,monospace,droid sans fallback&amp;#34;&quot;&gt;(&lt;/span&gt;&lt;span style=&quot;font-family: &amp;#34;droid sans mono,monospace,monospace,droid sans fallback&amp;#34;&quot;&gt;''&lt;/span&gt;&lt;span style=&quot;font-family: &amp;#34;droid sans mono,monospace,monospace,droid sans fallback&amp;#34;&quot;&gt;);&lt;/span&gt;&lt;/pre&gt;&lt;pre style=&quot;margin-top: 0px ; margin-bottom: 0px&quot;&gt;&lt;span style=&quot;font-family: &amp;#34;droid sans mono,monospace,monospace,droid sans fallback&amp;#34;&quot;&gt;}&lt;/span&gt;&lt;/pre&gt;&lt;p style=&quot;margin: 0px&quot;&gt;&lt;span style=&quot;font-family: &amp;#34;droid sans mono,monospace,monospace,droid sans fallback&amp;#34;&quot;&gt;&lt;br&gt;&lt;/span&gt;&lt;/p&gt;&lt;pre style=&quot;margin-top: 0px ; margin-bottom: 0px&quot;&gt;&lt;span style=&quot;font-family: &amp;#34;droid sans mono,monospace,monospace,droid sans fallback&amp;#34;&quot;&gt;console&lt;/span&gt;&lt;span style=&quot;font-family: &amp;#34;droid sans mono,monospace,monospace,droid sans fallback&amp;#34;&quot;&gt;.&lt;/span&gt;&lt;span style=&quot;font-family: &amp;#34;droid sans mono,monospace,monospace,droid sans fallback&amp;#34;&quot;&gt;log&lt;/span&gt;&lt;span style=&quot;font-family: &amp;#34;droid sans mono,monospace,monospace,droid sans fallback&amp;#34;&quot;&gt;(&lt;/span&gt;&lt;span style=&quot;font-family: &amp;#34;droid sans mono,monospace,monospace,droid sans fallback&amp;#34;&quot;&gt;divideAndSort&lt;/span&gt;&lt;span style=&quot;font-family: &amp;#34;droid sans mono,monospace,monospace,droid sans fallback&amp;#34;&quot;&gt;(&lt;/span&gt;&lt;span style=&quot;font-family: &amp;#34;droid sans mono,monospace,monospace,droid sans fallback&amp;#34;&quot;&gt;5956560159466056&lt;/span&gt;&lt;span style=&quot;font-family: &amp;#34;droid sans mono,monospace,monospace,droid sans fallback&amp;#34;&quot;&gt;));&lt;/span&gt;&lt;/pre&gt;&lt;/div&gt;&lt;p style=&quot;font-size: medium ; margin: 0px&quot;&gt;&lt;br&gt;&lt;/p&gt;" style="text;html=1;strokeColor=none;fillColor=none;spacing=5;spacingTop=-20;whiteSpace=wrap;overflow=hidden;rounded=0;" parent="1" vertex="1">
                    <mxGeometry x="530" y="40" width="350" height="260" as="geometry"/>
                </mxCell>
                <mxCell id="2" value="" style="edgeStyle=orthogonalEdgeStyle;rounded=0;orthogonalLoop=1;jettySize=auto;html=1;" edge="1" parent="1" source="3" target="5">
                    <mxGeometry relative="1" as="geometry"/>
                </mxCell>
                <mxCell id="3" value="START" style="ellipse;whiteSpace=wrap;html=1;" vertex="1" parent="1">
                    <mxGeometry x="560" y="380" width="120" height="80" as="geometry"/>
                </mxCell>
                <mxCell id="4" value="" style="edgeStyle=orthogonalEdgeStyle;rounded=0;orthogonalLoop=1;jettySize=auto;html=1;" edge="1" parent="1" source="5" target="7">
                    <mxGeometry relative="1" as="geometry"/>
                </mxCell>
                <mxCell id="5" value="&lt;span&gt;num =&amp;nbsp;&lt;/span&gt;&lt;span&gt;5956560159466056&lt;/span&gt;" style="rounded=0;whiteSpace=wrap;html=1;" vertex="1" parent="1">
                    <mxGeometry x="535" y="510" width="170" height="60" as="geometry"/>
                </mxCell>
                <mxCell id="6" value="" style="edgeStyle=orthogonalEdgeStyle;rounded=0;orthogonalLoop=1;jettySize=auto;html=1;" edge="1" parent="1" source="7" target="9">
                    <mxGeometry relative="1" as="geometry"/>
                </mxCell>
                <mxCell id="7" value="&lt;b&gt;STRING&lt;/b&gt; text = num&lt;br&gt;arr[] = split(text, &quot;0&quot;)&lt;br&gt;result = &quot;&quot;" style="rounded=0;whiteSpace=wrap;html=1;" vertex="1" parent="1">
                    <mxGeometry x="540" y="610" width="160" height="70" as="geometry"/>
                </mxCell>
                <mxCell id="8" value="" style="edgeStyle=orthogonalEdgeStyle;rounded=0;orthogonalLoop=1;jettySize=auto;html=1;" edge="1" parent="1" source="9" target="12">
                    <mxGeometry relative="1" as="geometry"/>
                </mxCell>
                <mxCell id="9" value="i = 0" style="rounded=0;whiteSpace=wrap;html=1;" vertex="1" parent="1">
                    <mxGeometry x="560" y="720" width="120" height="60" as="geometry"/>
                </mxCell>
                <mxCell id="10" value="TRUE" style="edgeStyle=orthogonalEdgeStyle;rounded=0;orthogonalLoop=1;jettySize=auto;html=1;" edge="1" parent="1" source="12" target="14">
                    <mxGeometry relative="1" as="geometry"/>
                </mxCell>
                <mxCell id="11" value="FALSE" style="edgeStyle=orthogonalEdgeStyle;rounded=0;orthogonalLoop=1;jettySize=auto;html=1;" edge="1" parent="1" source="12" target="18">
                    <mxGeometry relative="1" as="geometry"/>
                </mxCell>
                <mxCell id="12" value="i &amp;lt; arr.length" style="rhombus;whiteSpace=wrap;html=1;" vertex="1" parent="1">
                    <mxGeometry x="570" y="820" width="100" height="100" as="geometry"/>
                </mxCell>
                <mxCell id="13" value="" style="edgeStyle=orthogonalEdgeStyle;rounded=0;orthogonalLoop=1;jettySize=auto;html=1;" edge="1" parent="1" source="14" target="16">
                    <mxGeometry relative="1" as="geometry"/>
                </mxCell>
                <mxCell id="14" value="str[] = split(arr[i], &quot;&quot;)&lt;br&gt;str[] = sort(str[], str.length)&lt;br&gt;result += join(str[], &quot;&quot;)" style="rounded=0;whiteSpace=wrap;html=1;" vertex="1" parent="1">
                    <mxGeometry x="540" y="950" width="160" height="80" as="geometry"/>
                </mxCell>
                <mxCell id="15" style="edgeStyle=orthogonalEdgeStyle;rounded=0;orthogonalLoop=1;jettySize=auto;html=1;entryX=1;entryY=0.5;entryDx=0;entryDy=0;" edge="1" parent="1" source="16" target="12">
                    <mxGeometry relative="1" as="geometry">
                        <mxPoint x="770" y="870" as="targetPoint"/>
                        <Array as="points">
                            <mxPoint x="740" y="1090"/>
                            <mxPoint x="740" y="870"/>
                        </Array>
                    </mxGeometry>
                </mxCell>
                <mxCell id="16" value="i++" style="rounded=0;whiteSpace=wrap;html=1;" vertex="1" parent="1">
                    <mxGeometry x="560" y="1060" width="120" height="60" as="geometry"/>
                </mxCell>
                <mxCell id="17" value="" style="edgeStyle=orthogonalEdgeStyle;rounded=0;orthogonalLoop=1;jettySize=auto;html=1;" edge="1" parent="1" source="18" target="20">
                    <mxGeometry relative="1" as="geometry"/>
                </mxCell>
                <mxCell id="18" value="&lt;b&gt;NUMBER&amp;nbsp;&lt;/b&gt;fin = result" style="rounded=0;whiteSpace=wrap;html=1;" vertex="1" parent="1">
                    <mxGeometry x="400" y="840" width="120" height="60" as="geometry"/>
                </mxCell>
                <mxCell id="19" value="" style="edgeStyle=orthogonalEdgeStyle;rounded=0;orthogonalLoop=1;jettySize=auto;html=1;" edge="1" parent="1" source="20" target="21">
                    <mxGeometry relative="1" as="geometry"/>
                </mxCell>
                <mxCell id="20" value="&lt;b&gt;OUTPUT&lt;/b&gt;&lt;br&gt;fin" style="shape=parallelogram;perimeter=parallelogramPerimeter;whiteSpace=wrap;html=1;fixedSize=1;" vertex="1" parent="1">
                    <mxGeometry x="260" y="840" width="120" height="60" as="geometry"/>
                </mxCell>
                <mxCell id="21" value="&lt;b&gt;END&lt;/b&gt;" style="ellipse;whiteSpace=wrap;html=1;" vertex="1" parent="1">
                    <mxGeometry x="110" y="830" width="120" height="80" as="geometry"/>
                </mxCell>
            </root>
        </mxGraphModel>
    </diagram>
</mxfile>